<svg xmlns="http://www.w3.org/2000/svg" xmlns:xlink="http://www.w3.org/1999/xlink" width="111" height="61" viewBox="0 0 111 61">
  <defs>
    <clipPath id="clip-path">
      <rect id="Rectangle_146" data-name="Rectangle 146" width="111" height="61" transform="translate(0.457 4.129)" fill="none"/>
    </clipPath>
    <clipPath id="clip-path-2">
      <rect id="Rectangle_137" data-name="Rectangle 137" width="28.886" height="14.227" fill="none"/>
    </clipPath>
    <clipPath id="clip-path-3">
      <rect id="Rectangle_140" data-name="Rectangle 140" width="0.974" height="0.974" fill="none"/>
    </clipPath>
    <clipPath id="clip-path-4">
      <rect id="Rectangle_143" data-name="Rectangle 143" width="1.102" height="2.162" fill="none"/>
    </clipPath>
    <clipPath id="clip-path-5">
      <rect id="Rectangle_144" data-name="Rectangle 144" width="0.697" height="0.697" fill="none"/>
    </clipPath>
  </defs>
  <g id="Group_87" data-name="Group 87" transform="translate(-8.224 -14.129)">
    <g id="Group_86" data-name="Group 86" transform="translate(7.767 10)" clip-path="url(#clip-path)">
      <path id="Path_108" data-name="Path 108" d="M432.018,339.951c-7.682-23.613-48.957-24.64-52.127,1.854a15.542,15.542,0,0,1-4.606.154c-11.769-1.8-32.363,20.738-16.558,37.96h88.264c9.55-16.448,2.69-33.278-14.974-39.969" transform="translate(-344.057 -315.199)" fill="#f6f5f5"/>
      <path id="Path_109" data-name="Path 109" d="M1663.718,299.862l-.152-.148c9.852-10.129,10.244-15.668,10.836-24.054a102.593,102.593,0,0,1,1.13-10.383,27.92,27.92,0,0,0-16.082,19.469,34.25,34.25,0,0,0-.649,12.419l-.209.037a34.471,34.471,0,0,1,.65-12.5,28.9,28.9,0,0,1,4.873-10.62A29.252,29.252,0,0,1,1675.626,265l.183-.084-.034.2a101.539,101.539,0,0,0-1.161,10.561c-.6,8.432-.99,14-10.9,24.187" transform="translate(-1596.967 -260.324)" fill="#dadada"/>
      <path id="Path_110" data-name="Path 110" d="M1742.038,513.17l-.206-.053c.039-.152,3.963-15.3,8.9-23.7l.183.107c-4.921,8.382-8.837,23.5-8.876,23.649" transform="translate(-1677.143 -475.807)" fill="#dadada"/>
      <path id="Path_111" data-name="Path 111" d="M1841.571,520.724l-.212-.008a13.093,13.093,0,0,0-1.5-6l.187-.1a13.321,13.321,0,0,1,1.524,6.105" transform="translate(-1771.236 -500.001)" fill="#dadada"/>
      <path id="Path_112" data-name="Path 112" d="M1822.492,746.149l-.15-.151a12.217,12.217,0,0,1,5.237-2.941l.047.207a11.991,11.991,0,0,0-5.134,2.885" transform="translate(-1754.421 -719.268)" fill="#dadada"/>
      <path id="Path_113" data-name="Path 113" d="M1979.373,500.193l-.021-.211c3.841-.381,6.958-2.955,9.526-7.87,2.276-4.355,3.839-9.918,5.351-15.3.98-3.488,1.907-6.788,2.99-9.645a25.318,25.318,0,0,0-15.683,11.615l-.189-.1a25.547,25.547,0,0,1,16.019-11.773l.2-.047-.073.189c-1.11,2.891-2.055,6.255-3.055,9.816-1.515,5.391-3.081,10.966-5.367,15.34-2.6,4.984-5.775,7.595-9.693,7.983" transform="translate(-1905.127 -454.164)" fill="#dadada"/>
      <path id="Path_114" data-name="Path 114" d="M1951.792,715.226l-.194-.086c.064-.146,6.522-14.607,11.947-18.812l.13.168c-2.224,1.724-4.982,5.507-7.979,10.94-2.267,4.112-3.888,7.754-3.9,7.79" transform="translate(-1878.488 -674.415)" fill="#dadada"/>
      <path id="Path_115" data-name="Path 115" d="M2129.182,701.6l-.209-.039c0-.016.3-1.654.57-5.61l.212.014c-.268,3.972-.569,5.619-.573,5.635" transform="translate(-2048.741 -674.048)" fill="#dadada"/>
      <path id="Path_116" data-name="Path 116" d="M2041.108,916.207l-.121-.175a22.238,22.238,0,0,1,6.852-2.915l.047.207a21.986,21.986,0,0,0-6.779,2.883" transform="translate(-1964.288 -882.5)" fill="#dadada"/>
      <path id="Path_117" data-name="Path 117" d="M484.385,837.961c-9.541-9.808-9.92-15.173-10.494-23.294a97.758,97.758,0,0,0-1.118-10.169l-.034-.2.183.084a27.273,27.273,0,0,1,15.78,18.978,33.2,33.2,0,0,1,.625,12.036l-.209-.036a32.976,32.976,0,0,0-.625-11.958,27.051,27.051,0,0,0-15.477-18.742,98.753,98.753,0,0,1,1.087,9.991c.571,8.074.948,13.408,10.434,23.161Z" transform="translate(-459.003 -778.052)" fill="#dadada"/>
      <path id="Path_118" data-name="Path 118" d="M602.974,1043.481c-.037-.146-3.808-14.7-8.547-22.773l.183-.108c4.754,8.1,8.532,22.681,8.57,22.828Z" transform="translate(-575.804 -985.669)" fill="#dadada"/>
      <path id="Path_119" data-name="Path 119" d="M676.788,1050.76a12.835,12.835,0,0,1,1.468-5.881l.187.1a12.611,12.611,0,0,0-1.442,5.773Z" transform="translate(-654.858 -1008.972)" fill="#dadada"/>
      <path id="Path_120" data-name="Path 120" d="M613,1267.8a11.544,11.544,0,0,0-4.942-2.777l.047-.207a11.767,11.767,0,0,1,5.045,2.833Z" transform="translate(-588.888 -1220.079)" fill="#dadada"/>
      <path id="Path_121" data-name="Path 121" d="M182.449,1125.1c-8.2-.762-11.478-9.849-14.373-17.866a78.517,78.517,0,0,0-2.975-7.472l-.095-.194.212.044A26.819,26.819,0,0,1,176.8,1105a18.206,18.206,0,0,1,3.548,3.728l-.179.115c-.043-.068-4.426-6.748-14.782-8.981,1.037,2.168,1.938,4.662,2.89,7.3,2.874,7.958,6.131,16.977,14.193,17.727Z" transform="translate(-163.624 -1061.465)" fill="#dadada"/>
      <path id="Path_122" data-name="Path 122" d="M348.785,1290.3c-.062-.111-6.253-11.106-11.336-14.33l.114-.18c5.128,3.254,11.346,14.3,11.408,14.406Z" transform="translate(-329.143 -1230.609)" fill="#dadada"/>
      <path id="Path_123" data-name="Path 123" d="M435.03,1281.592a35.751,35.751,0,0,1-.6-4.283l.211-.021a35.559,35.559,0,0,0,.6,4.253Z" transform="translate(-422.227 -1232.051)" fill="#dadada"/>
      <path id="Path_124" data-name="Path 124" d="M383.4,1443.021a23.829,23.829,0,0,0-6.379-2.267l.041-.208a24.065,24.065,0,0,1,6.442,2.291Z" transform="translate(-367.128 -1388.754)" fill="#dadada"/>
      <path id="Path_125" data-name="Path 125" d="M2346.744,1008.573l-.05-.206c9.025-2.2,10.727-11.9,12.372-21.273a80.842,80.842,0,0,1,2.087-9.634c-8.984,1.721-14.072,7.924-16.764,12.842a35.8,35.8,0,0,0-3.744,10.462l-.21-.032a36.014,36.014,0,0,1,3.764-10.526c2.731-4.992,7.913-11.3,17.089-12.987l.174-.032-.054.168a78.853,78.853,0,0,0-2.133,9.776c-1.657,9.442-3.371,19.206-12.531,21.442" transform="translate(-2251.714 -943.997)" fill="#dadada"/>
      <path id="Path_126" data-name="Path 126" d="M2473.448,1227.875l-.2-.057c.033-.119,3.36-11.949,8.772-16.621l.139.161c-5.363,4.629-8.673,16.4-8.706,16.517" transform="translate(-2379.189 -1168.613)" fill="#dadada"/>
      <path id="Path_127" data-name="Path 127" d="M2568.633,1235.447l-.208-.043a26.6,26.6,0,0,0,.32-5.973l.212-.01a26.821,26.821,0,0,1-.324,6.027" transform="translate(-2470.55 -1186.104)" fill="#dadada"/>
      <path id="Path_128" data-name="Path 128" d="M2499.209,1413.569l-.13-.168a28.311,28.311,0,0,1,7.1-3.773l.072.2a28.085,28.085,0,0,0-7.043,3.741" transform="translate(-2403.988 -1359.077)" fill="#dadada"/>
      <path id="Path_129" data-name="Path 129" d="M1962.444,644.095a.69.69,0,1,1,.69-.69.691.691,0,0,1-.69.69m0-1.168a.478.478,0,1,0,.478.478.478.478,0,0,0-.478-.478" transform="translate(-1888.236 -622.953)" fill="#dadada"/>
      <path id="Path_130" data-name="Path 130" d="M536.708,909.951a.69.69,0,1,1,.69-.69.691.691,0,0,1-.69.69m0-1.168a.478.478,0,1,0,.478.478.479.479,0,0,0-.478-.478" transform="translate(-519.74 -878.136)" fill="#dadada"/>
      <path id="Path_131" data-name="Path 131" d="M2131.732,1293.089a.69.69,0,1,1,.69-.69.691.691,0,0,1-.69.69m0-1.168a.478.478,0,1,0,.478.478.478.478,0,0,0-.478-.478" transform="translate(-2050.727 -1245.892)" fill="#dadada"/>
      <path id="Path_132" data-name="Path 132" d="M2716.75,1109.675a.69.69,0,1,1,.69-.69.691.691,0,0,1-.69.69m0-1.168a.478.478,0,1,0,.478.478.479.479,0,0,0-.478-.478" transform="translate(-2612.258 -1069.841)" fill="#dadada"/>
      <path id="Path_133" data-name="Path 133" d="M2080.416,1070.415a.478.478,0,1,1-.478-.478.478.478,0,0,1,.478.478" transform="translate(-2001.216 -1033.024)" fill="#dadada"/>
      <path id="Path_134" data-name="Path 134" d="M2628.4,1508.658a.478.478,0,1,1-.478-.478.478.478,0,0,1,.478.478" transform="translate(-2527.201 -1453.672)" fill="#dadada"/>
      <path id="Path_135" data-name="Path 135" d="M1752.418,730.489a.478.478,0,1,1-.478-.478.478.478,0,0,1,.478.478" transform="translate(-1686.387 -706.745)" fill="#dadada"/>
      <path id="Path_136" data-name="Path 136" d="M438.223,1547.457a.478.478,0,1,1-.478-.478.478.478,0,0,1,.478.478" transform="translate(-424.954 -1490.914)" fill="#dadada"/>
      <path id="Path_137" data-name="Path 137" d="M618.27,334.466a.644.644,0,0,1-.184-.027l-1.321-.395a.642.642,0,0,1-.432-.8l.45-1.495a6.733,6.733,0,0,1-1.526-1.108l-1.288.869a.646.646,0,0,1-.894-.172L612.3,330.2a.641.641,0,0,1,.172-.892l1.273-.859a6.678,6.678,0,0,1-.5-2l-1.51-.173a.642.642,0,0,1-.566-.711l.158-1.366a.644.644,0,0,1,.713-.565l1.491.171a6.673,6.673,0,0,1,.864-1.759l-1.029-1.067a.641.641,0,0,1,.018-.909l.994-.953a.646.646,0,0,1,.91.018l1.02,1.058a6.681,6.681,0,0,1,1.872-.828l-.095-1.458a.644.644,0,0,1,.6-.683l1.376-.09a.641.641,0,0,1,.684.6l.095,1.459a6.683,6.683,0,0,1,1.963.578l.875-1.182a.646.646,0,0,1,.9-.136l1.11.816a.641.641,0,0,1,.136.9l-.882,1.192a6.692,6.692,0,0,1,1.084,1.632l1.456-.363a.645.645,0,0,1,.781.468l.333,1.334a.643.643,0,0,1-.469.779l-1.475.367a6.644,6.644,0,0,1-.239,2.05l1.374.687a.642.642,0,0,1,.287.862l-.618,1.229a.646.646,0,0,1-.864.286l-1.391-.695a6.718,6.718,0,0,1-1.369,1.3l.64,1.424a.642.642,0,0,1-.324.849l-1.258.563a.646.646,0,0,1-.851-.323l-.643-1.431a6.778,6.778,0,0,1-2.056.134l-.452,1.5a.645.645,0,0,1-.617.458m-2.987-4.1.062.061a6.523,6.523,0,0,0,1.614,1.172l.078.04-.5,1.664a.429.429,0,0,0,.289.535l1.321.395a.432.432,0,0,0,.537-.289l.5-1.67.087.009a6.557,6.557,0,0,0,2.159-.141l.085-.02.715,1.59a.433.433,0,0,0,.57.216l1.258-.563a.429.429,0,0,0,.217-.568l-.712-1.585.073-.05a6.51,6.51,0,0,0,1.448-1.372l.053-.069,1.546.773a.432.432,0,0,0,.579-.192l.618-1.229a.429.429,0,0,0-.192-.577l-1.532-.766.025-.085a6.436,6.436,0,0,0,.251-2.152l0-.087,1.644-.41a.43.43,0,0,0,.314-.521l-.333-1.334a.432.432,0,0,0-.523-.313l-1.627.405-.037-.081a6.481,6.481,0,0,0-1.143-1.721l-.06-.065.986-1.333a.429.429,0,0,0-.091-.6l-1.11-.816a.433.433,0,0,0-.6.091l-.979,1.323-.079-.039a6.47,6.47,0,0,0-2.062-.607l-.088-.011-.106-1.634a.432.432,0,0,0-.459-.4l-1.376.09a.432.432,0,0,0-.4.457l.106,1.634-.086.022a6.471,6.471,0,0,0-1.967.87l-.074.049-1.142-1.185a.433.433,0,0,0-.61-.012l-.994.953a.429.429,0,0,0-.012.608l1.151,1.194-.051.072a6.468,6.468,0,0,0-.911,1.855l-.026.085-1.666-.191a.43.43,0,0,0-.478.378l-.158,1.366a.43.43,0,0,0,.379.476l1.683.193.007.087a6.48,6.48,0,0,0,.528,2.1l.036.081-1.419.958a.429.429,0,0,0-.116.6l.773,1.138a.433.433,0,0,0,.6.115Zm4.654-.633a3.852,3.852,0,1,1,2.553-6.748,3.852,3.852,0,0,1-2.3,6.74q-.128.008-.254.008m.011-7.492q-.121,0-.243.008a3.64,3.64,0,1,0,2.98,6.032,3.639,3.639,0,0,0-2.737-6.04" transform="translate(-591.87 -310.442)" fill="#dadada"/>
      <path id="Path_138" data-name="Path 138" d="M836.05,561.187H804.456a1.98,1.98,0,0,1-1.98-1.98V513.027a1.98,1.98,0,0,1,1.98-1.98H836.05a1.98,1.98,0,0,1,1.98,1.98v46.181a1.98,1.98,0,0,1-1.98,1.98" transform="translate(-775.501 -496.572)" fill="#96aff4"/>
      <rect id="Rectangle_131" data-name="Rectangle 131" width="12.531" height="2.104" transform="translate(38.487 16.681)" fill="#d3dfff"/>
      <rect id="Rectangle_132" data-name="Rectangle 132" width="28.461" height="6.312" transform="translate(30.522 21.991)" fill="#dadada"/>
      <rect id="Rectangle_133" data-name="Rectangle 133" width="25.97" height="4.585" transform="translate(31.768 22.855)" fill="#fff"/>
      <path id="Path_139" data-name="Path 139" d="M1343.472,930.96h-1.934a1.051,1.051,0,0,1-1.051-1.051v-.447a1.051,1.051,0,0,1,1.051-1.051h1.934a1.051,1.051,0,0,1,1.051,1.051v.447a1.051,1.051,0,0,1-1.051,1.051" transform="translate(-1291.911 -897.18)" fill="#1f3c88"/>
      <path id="Path_140" data-name="Path 140" d="M1502.181,930.96h-1.934a1.051,1.051,0,0,1-1.051-1.051v-.447a1.051,1.051,0,0,1,1.051-1.051h1.934a1.051,1.051,0,0,1,1.051,1.051v.447a1.051,1.051,0,0,1-1.051,1.051" transform="translate(-1444.249 -897.18)" fill="#1f3c88"/>
      <path id="Path_141" data-name="Path 141" d="M1482.407,1071.942h-3.884a.5.5,0,0,1-.5-.5v-2.327a.5.5,0,0,1,.5-.5h3.884a.5.5,0,0,1,.5.5v2.327a.5.5,0,0,1-.5.5" transform="translate(-1423.926 -1031.754)" fill="#1f3c88"/>
      <path id="Path_142" data-name="Path 142" d="M1288.288,1071.942H1284.4a.5.5,0,0,1-.5-.5v-2.327a.5.5,0,0,1,.5-.5h3.884a.5.5,0,0,1,.5.5v2.327a.5.5,0,0,1-.5.5" transform="translate(-1237.6 -1031.754)" fill="#1f3c88"/>
      <path id="Path_143" data-name="Path 143" d="M1094.172,1071.942h-3.884a.5.5,0,0,1-.5-.5v-2.327a.5.5,0,0,1,.5-.5h3.884a.5.5,0,0,1,.5.5v2.327a.5.5,0,0,1-.5.5" transform="translate(-1051.277 -1031.754)" fill="#1f3c88"/>
      <path id="Path_144" data-name="Path 144" d="M900.055,1071.942h-3.884a.5.5,0,0,1-.5-.5v-2.327a.5.5,0,0,1,.5-.5h3.884a.5.5,0,0,1,.5.5v2.327a.5.5,0,0,1-.5.5" transform="translate(-864.954 -1031.754)" fill="#1f3c88"/>
      <path id="Path_145" data-name="Path 145" d="M1482.407,1221.844h-3.884a.5.5,0,0,1-.5-.5v-2.327a.5.5,0,0,1,.5-.5h3.884a.5.5,0,0,1,.5.5v2.327a.5.5,0,0,1-.5.5" transform="translate(-1423.926 -1175.638)" fill="#1f3c88"/>
      <path id="Path_146" data-name="Path 146" d="M1288.288,1221.844H1284.4a.5.5,0,0,1-.5-.5v-2.327a.5.5,0,0,1,.5-.5h3.884a.5.5,0,0,1,.5.5v2.327a.5.5,0,0,1-.5.5" transform="translate(-1237.6 -1175.638)" fill="#d3dfff"/>
      <path id="Path_147" data-name="Path 147" d="M1094.172,1221.844h-3.884a.5.5,0,0,1-.5-.5v-2.327a.5.5,0,0,1,.5-.5h3.884a.5.5,0,0,1,.5.5v2.327a.5.5,0,0,1-.5.5" transform="translate(-1051.277 -1175.638)" fill="#d3dfff"/>
      <path id="Path_148" data-name="Path 148" d="M900.055,1221.844h-3.884a.5.5,0,0,1-.5-.5v-2.327a.5.5,0,0,1,.5-.5h3.884a.5.5,0,0,1,.5.5v2.327a.5.5,0,0,1-.5.5" transform="translate(-864.954 -1175.638)" fill="#d3dfff"/>
      <path id="Path_149" data-name="Path 149" d="M1482.407,1371.747h-3.884a.5.5,0,0,1-.5-.5v-2.327a.5.5,0,0,1,.5-.5h3.884a.5.5,0,0,1,.5.5v2.327a.5.5,0,0,1-.5.5" transform="translate(-1423.926 -1319.522)" fill="#1f3c88"/>
      <path id="Path_150" data-name="Path 150" d="M1288.288,1371.747H1284.4a.5.5,0,0,1-.5-.5v-2.327a.5.5,0,0,1,.5-.5h3.884a.5.5,0,0,1,.5.5v2.327a.5.5,0,0,1-.5.5" transform="translate(-1237.6 -1319.522)" fill="#d3dfff"/>
      <path id="Path_151" data-name="Path 151" d="M1094.172,1371.747h-3.884a.5.5,0,0,1-.5-.5v-2.327a.5.5,0,0,1,.5-.5h3.884a.5.5,0,0,1,.5.5v2.327a.5.5,0,0,1-.5.5" transform="translate(-1051.277 -1319.522)" fill="#d3dfff"/>
      <path id="Path_152" data-name="Path 152" d="M900.055,1371.747h-3.884a.5.5,0,0,1-.5-.5v-2.327a.5.5,0,0,1,.5-.5h3.884a.5.5,0,0,1,.5.5v2.327a.5.5,0,0,1-.5.5" transform="translate(-864.954 -1319.522)" fill="#d3dfff"/>
      <path id="Path_153" data-name="Path 153" d="M1482.407,1526.94h-3.884a.5.5,0,0,1-.5-.5v-2.327a.5.5,0,0,1,.5-.5h3.884a.5.5,0,0,1,.5.5v2.327a.5.5,0,0,1-.5.5" transform="translate(-1423.926 -1468.485)" fill="#fbc343"/>
      <path id="Path_154" data-name="Path 154" d="M1288.288,1526.94H1284.4a.5.5,0,0,1-.5-.5v-2.327a.5.5,0,0,1,.5-.5h3.884a.5.5,0,0,1,.5.5v2.327a.5.5,0,0,1-.5.5" transform="translate(-1237.6 -1468.485)" fill="#d3dfff"/>
      <path id="Path_155" data-name="Path 155" d="M1094.172,1526.94h-3.884a.5.5,0,0,1-.5-.5v-2.327a.5.5,0,0,1,.5-.5h3.884a.5.5,0,0,1,.5.5v2.327a.5.5,0,0,1-.5.5" transform="translate(-1051.277 -1468.485)" fill="#d3dfff"/>
      <path id="Path_156" data-name="Path 156" d="M900.055,1526.94h-3.884a.5.5,0,0,1-.5-.5v-2.327a.5.5,0,0,1,.5-.5h3.884a.5.5,0,0,1,.5.5v2.327a.5.5,0,0,1-.5.5" transform="translate(-864.954 -1468.485)" fill="#d3dfff"/>
      <rect id="Rectangle_134" data-name="Rectangle 134" width="19.398" height="14.229" transform="translate(71.872 50.492)" fill="#fbc343"/>
      <rect id="Rectangle_135" data-name="Rectangle 135" width="5.168" height="0.212" transform="translate(86.102 53.713)" fill="#e49b31"/>
      <rect id="Rectangle_136" data-name="Rectangle 136" width="8.991" height="0.212" transform="translate(82.279 61.501)" fill="#e49b31"/>
      <path id="Path_157" data-name="Path 157" d="M1930.417,1413.324a16.324,16.324,0,0,1-.748,4.883,5.824,5.824,0,0,1-5.556,4.082h-3.366v-14.121h8.836a16.347,16.347,0,0,1,.835,5.155" transform="translate(-1848.875 -1357.677)" fill="#e49b31"/>
      <path id="Path_158" data-name="Path 158" d="M1291.3,1677.723v1.517a.963.963,0,0,1-.964.964H1274.34a.963.963,0,0,1-.964-.964v-1.517a.964.964,0,0,1,.964-.964h15.991a.964.964,0,0,1,.964.964" transform="translate(-1227.495 -1615.483)" fill="#fbc343"/>
      <path id="Path_159" data-name="Path 159" d="M1241.937,1591.855v1.519a.965.965,0,0,1-.964.964h-15.991a.964.964,0,0,1-.964-.964v-1.519a.965.965,0,0,1,.964-.964h15.991a.966.966,0,0,1,.964.964" transform="translate(-1180.117 -1533.063)" fill="#fbc343"/>
      <path id="Path_160" data-name="Path 160" d="M1374.472,1595.3v1.517a.964.964,0,0,1-.964.964H1362.04a8.758,8.758,0,0,1-1.567-3.446,16.965,16.965,0,0,1-.442-3.447h11.495a.966.966,0,0,1,.964.964v1.519a.965.965,0,0,1-.964.964h1.982a.964.964,0,0,1,.964.964" transform="translate(-1310.671 -1533.064)" fill="#e49b31"/>
      <path id="Path_161" data-name="Path 161" d="M1608.791,983.64l-1.291,3.966-.1.293-.6,1.842,0,.013-1.931-.042-7.408-.168-.542-1.551-.091-.259-1.434-4.093c4.448,1.54,8.113-1.827,13.4,0" transform="translate(-1536.585 -949.655)" fill="#fbc343"/>
      <path id="Path_162" data-name="Path 162" d="M1643.864,1103.062l-.6,1.842-1.935-.03-7.408-.168-.542-1.551c2.547-.044,6.928-.1,10.484-.093" transform="translate(-1573.045 -1064.818)" fill="#e49b31"/>
      <path id="Path_163" data-name="Path 163" d="M1427.849,1167.331a5.822,5.822,0,0,1-5.556,4.083h-16.779a5.4,5.4,0,0,1-5.2-3.962,16.917,16.917,0,0,1-.6-4.091c0-.132,0-.263,0-.4q0-.233.006-.467a16.787,16.787,0,0,1,6.438-12.634l4.014-3.178,9.186.212,5.049,4.832a11.129,11.129,0,0,1,1.851,2.281,16.347,16.347,0,0,1,1.6,13.319" transform="translate(-1348.754 -1106.693)" fill="#fbc343"/>
      <path id="Path_164" data-name="Path 164" d="M1652.525,1287.31v-1.775a7.535,7.535,0,0,1-3.179-.8l.562-2.188a6.607,6.607,0,0,0,3.1.822c1.066,0,1.795-.411,1.795-1.158,0-.711-.6-1.16-1.982-1.628-2-.673-3.366-1.608-3.366-3.421,0-1.646,1.16-2.935,3.16-3.328v-1.777h1.832v1.646a6.751,6.751,0,0,1,2.711.616l-.542,2.113a6.2,6.2,0,0,0-2.693-.636c-1.215,0-1.607.524-1.607,1.047,0,.617.655,1.009,2.244,1.608,2.224.786,3.122,1.813,3.122,3.5,0,1.664-1.178,3.084-3.328,3.459v1.906Z" transform="translate(-1588.37 -1227.026)" fill="#fff"/>
      <path id="Path_165" data-name="Path 165" d="M1592.838,1132.73h-12.994a.98.98,0,0,1-.977-.977v-.416a.98.98,0,0,1,.977-.977h12.994a.98.98,0,0,1,.977.977v.416a.98.98,0,0,1-.977.977" transform="translate(-1520.72 -1091.021)" fill="#ed7545"/>
      <g id="Group_76" data-name="Group 76" transform="translate(50.957 50.494)" opacity="0.4">
        <g id="Group_75" data-name="Group 75">
          <g id="Group_74" data-name="Group 74" clip-path="url(#clip-path-2)">
            <path id="Path_166" data-name="Path 166" d="M1427.951,1418.35a5.822,5.822,0,0,1-5.556,4.082h-16.779a5.4,5.4,0,0,1-5.2-3.961,16.93,16.93,0,0,1-.6-4.091c2.776,2.647,6.047,6.107,13.693,6.213,9.495.132,13.587-4.318,14.322-12.388a16.327,16.327,0,0,1,.123,10.145" transform="translate(-1399.813 -1408.205)" fill="#e49b31"/>
          </g>
        </g>
      </g>
      <path id="Path_167" data-name="Path 167" d="M342.4,1674.151l-1.7-.637-3.947,3.469h4.671Z" transform="translate(-328.474 -1612.368)" fill="#102048"/>
      <path id="Path_168" data-name="Path 168" d="M454.069,1689.386h3.752l-.425,2.691-4.3.142Z" transform="translate(-440.146 -1627.603)" fill="#f9b384"/>
      <path id="Path_169" data-name="Path 169" d="M511.908,1313.73l-.138.941-.083.567-.595,4.076-.227,1.557-.2,1.389-.529,3.62-.367,2.511a3.844,3.844,0,0,1-3.8,3.288h-8.3l.011-.106.27-2.761.038-.389,5.788-1.115.777-5.646a11.745,11.745,0,0,1-.123-4.331,10.479,10.479,0,0,1,.336-1.546l2.583-.741Z" transform="translate(-482.923 -1267.029)" fill="#868686"/>
      <path id="Path_170" data-name="Path 170" d="M698.473,1616.357l-.367,2.511a3.844,3.844,0,0,1-3.8,3.288h-.425c3.8-.681,3.061-5.54,4.6-5.8" transform="translate(-671.262 -1557.506)" fill="#747474"/>
      <rect id="Rectangle_138" data-name="Rectangle 138" width="1.542" height="0.213" transform="matrix(0.528, -0.849, 0.849, 0.528, 10.966, 64.559)" fill="#fff"/>
      <path id="Path_171" data-name="Path 171" d="M755.678,1452.822l-.429,2.946a8.594,8.594,0,0,1-2.772-2.051Z" transform="translate(-727.509 -1400.537)" fill="#747474"/>
      <path id="Path_172" data-name="Path 172" d="M916.771,1601.285a9.406,9.406,0,0,1-5.628.372l3-1.991Z" transform="translate(-879.804 -1541.484)" fill="#102048"/>
      <path id="Path_173" data-name="Path 173" d="M944.865,1614.976l-3.226.072-.019-.7-.051-1.909,2.867.212.136.737Z" transform="translate(-909.009 -1553.748)" fill="#f9b384"/>
      <path id="Path_174" data-name="Path 174" d="M944.572,1613.391l-2.952.96-.051-1.91,2.867.212Z" transform="translate(-909.009 -1553.748)" fill="#e28b6d"/>
      <path id="Path_175" data-name="Path 175" d="M950.186,1678.994l-3.558-2.867-.1-.545-3.227.071.089,3.342Z" transform="translate(-910.671 -1614.353)" fill="#102048"/>
      <rect id="Rectangle_139" data-name="Rectangle 139" width="1.503" height="0.213" transform="translate(35.815 63.374) rotate(-31.979)" fill="#fff"/>
      <path id="Path_176" data-name="Path 176" d="M674.4,1320.221l11.545-1.833a2.829,2.829,0,0,1,3.271,2.707l.317,10.172s-3.292-.69-5.628.372l-.212-6.956a13.8,13.8,0,0,1-6.335.531Z" transform="translate(-652.568 -1271.466)" fill="#868686"/>
      <path id="Path_177" data-name="Path 177" d="M833.243,1334.124h-.212c0-1.76.042-3.221.08-4.51.091-3.139.141-4.868-.658-5.6-.647-.592-1.94-.574-3.816-.352-2.011.234-2.813-1.906-2.82-1.928l.2-.072a2.62,2.62,0,0,0,2.6,1.789c1.986-.234,3.275-.244,3.985.406.871.8.823,2.457.727,5.763-.037,1.287-.08,2.747-.08,4.5" transform="translate(-797.903 -1274.642)" fill="#727272"/>
      <path id="Path_178" data-name="Path 178" d="M909.439,1599.611l-.075-.2a10.585,10.585,0,0,1,5.692-.269l-.052.206a10.358,10.358,0,0,0-5.565.261" transform="translate(-878.097 -1540.72)" fill="#727272"/>
      <path id="Path_179" data-name="Path 179" d="M524.383,1677.423c-.331-.662.181-3.4.2-3.519l.209.04a10.252,10.252,0,0,0-.222,3.384Z" transform="translate(-508.466 -1612.743)" fill="#727272"/>
      <path id="Path_180" data-name="Path 180" d="M672.389,1343.729a7.756,7.756,0,0,1-2.655,2.9,3.4,3.4,0,0,1-1.788.578,2.086,2.086,0,0,1-1.895-1.085,10.484,10.484,0,0,1,.336-1.546l2.583-.741,2.606-.083Z" transform="translate(-644.553 -1295.824)" fill="#747474"/>
      <path id="Path_181" data-name="Path 181" d="M772.272,1083.216v2.458h2.407v-2.126Z" transform="translate(-746.509 -1045.77)" fill="#ed7545"/>
      <path id="Path_182" data-name="Path 182" d="M774.679,1053.623h-2.407v1.188l2.407.332Z" transform="translate(-746.509 -1017.365)" fill="#f9b384"/>
      <path id="Path_183" data-name="Path 183" d="M789.949,1059.462a3.906,3.906,0,0,0,1.7,1.184l-.016-1.29Z" transform="translate(-763.476 -1022.868)" fill="#102048"/>
      <path id="Path_184" data-name="Path 184" d="M769.884,974.934s1.327,3.576-.389,3.806-1.982-.549-1.982-.549l-.531-1.894,1.186-1.593Z" transform="translate(-741.431 -941.614)" fill="#f9b384"/>
      <path id="Path_185" data-name="Path 185" d="M841.789,1014.315a.372.372,0,1,1-.372-.372.372.372,0,0,1,.372.372" transform="translate(-812.522 -979.278)" fill="#f9b384"/>
      <path id="Path_186" data-name="Path 186" d="M740.553,957.244s.089-1.912,1.805-1.7a2.529,2.529,0,0,0-2.678-.909,2.18,2.18,0,0,0-1.366,1.854,2.381,2.381,0,0,0,1.391,2.489,16.6,16.6,0,0,1,.759-1.487Z" transform="translate(-713.906 -922.225)" fill="#102048"/>
      <path id="Path_187" data-name="Path 187" d="M780.35,1011.6a.529.529,0,1,1-.732-.33.572.572,0,0,1,.732.33" transform="translate(-753.292 -976.673)" fill="#f9b384"/>
      <g id="Group_79" data-name="Group 79" transform="translate(27.384 34.762)" opacity="0.4">
        <g id="Group_78" data-name="Group 78">
          <g id="Group_77" data-name="Group 77" clip-path="url(#clip-path-3)">
            <path id="Path_188" data-name="Path 188" d="M813.627,1016.856a.487.487,0,1,1-.487-.487.487.487,0,0,1,.487.487" transform="translate(-812.654 -1016.369)" fill="#eb5d60"/>
          </g>
        </g>
      </g>
      <path id="Path_189" data-name="Path 189" d="M785.093,1018.869a.053.053,0,0,1-.053-.053.365.365,0,0,0-.335-.355.053.053,0,0,1-.045-.06.054.054,0,0,1,.06-.045.476.476,0,0,1,.426.46.053.053,0,0,1-.053.053Z" transform="translate(-758.4 -983.513)" fill="#102048"/>
      <path id="Path_190" data-name="Path 190" d="M995.787,995.867a4.684,4.684,0,0,1,2.867,1.328l-2.3.566Z" transform="translate(-961.05 -961.928)" fill="#ba5c36"/>
      <path id="Path_191" data-name="Path 191" d="M998.221,909.377a8.344,8.344,0,0,1-.8,1.619c-.2.346-.359.61-.359.61l-1.238.361-.884-1.332-.042-.066s.013-.057.036-.159v0s0-.006,0-.013c.149-.631.675-2.781.979-2.853.268-.062.11,1.115.11,1.115s.661-1.914,1.051-1.835c.312.062-.3,1.9-.3,1.9s.219-.229.44-.157a.392.392,0,0,1,.266.3.306.306,0,0,1,.314-.017c.157.1.142.393.142.393s.265-.125.282.14" transform="translate(-960.194 -876.455)" fill="#f9b384"/>
      <path id="Path_192" data-name="Path 192" d="M611.717,1122.949l-.841,3.288-1.3,5.1a4.686,4.686,0,0,1-2.561.414,1.464,1.464,0,0,1-1.421-1.529c.106-2.389,6.128-7.271,6.128-7.271" transform="translate(-586.517 -1083.908)" fill="#ed7545"/>
      <path id="Path_193" data-name="Path 193" d="M645.573,1146.21l-.68,2.354-1.3,5.1a4.685,4.685,0,0,1-2.561.414c1.89-5.424,4.545-7.866,4.545-7.866" transform="translate(-620.534 -1106.235)" fill="#ba5c36"/>
      <path id="Path_194" data-name="Path 194" d="M679.52,1115.156c-1.752.119-7.274,4.686-8.6,1.74,0,0,.185-10.99,5.858-10.786a2.393,2.393,0,0,1,2.19,1.663,11.176,11.176,0,0,1,.378,1.725,22.94,22.94,0,0,1,.217,2.744c.023.85.013,1.816-.04,2.914" transform="translate(-649.224 -1067.742)" fill="#ed7545"/>
      <path id="Path_195" data-name="Path 195" d="M843.323,1193.308a7.8,7.8,0,0,1-1.793-2.277l1.576-.467a22.959,22.959,0,0,1,.217,2.744" transform="translate(-812.987 -1148.808)" fill="#ba5c36"/>
      <path id="Path_196" data-name="Path 196" d="M998.281,996.468c-.2.346-.359.61-.359.61l-1.238.361-.884-1.332-.006-.225v-.015h0Z" transform="translate(-961.057 -961.928)" fill="#e28b6d"/>
      <path id="Path_197" data-name="Path 197" d="M816.834,1000.3s2.724.191,4.37.51l2.814-4.939a6.412,6.412,0,0,0,2.867,1.328l-2.463,5.8a3.334,3.334,0,0,1-2.877,1.858l-4.218.144Z" transform="translate(-789.282 -961.928)" fill="#ed7545"/>
      <path id="Path_198" data-name="Path 198" d="M776.993,1105.553h-.015c-.052-.01-5.2-.953-6.073-.178a.08.08,0,0,1-.106-.12c.934-.826,5.993.1,6.207.141a.08.08,0,0,1-.015.158" transform="translate(-745.07 -1066.595)" fill="#ba5c36"/>
      <path id="Path_199" data-name="Path 199" d="M2197.418,1638.6l.354,4.531h-5.894l2.974-2.053-.053-2.832Z" transform="translate(-2109.121 -1578.513)" fill="#102048"/>
      <path id="Path_200" data-name="Path 200" d="M2482.853,1599l1.593,3.876-4.035,3.4.584-3.823-.8-2.549Z" transform="translate(-2385.865 -1540.85)" fill="#102048"/>
      <path id="Path_201" data-name="Path 201" d="M2222.3,1054.487a4.375,4.375,0,0,0-.149.565c-.079.393-.146.894-.2,1.485-.187,1.929-.265,4.794-.287,7.838-.044,6.854.215,14.612.215,14.612l-1.079-.017-2.655-.04-.939-.015a123.364,123.364,0,0,1-.8-23.221c.007-.11.015-.212.019-.308.045-.586.074-.9.074-.9Z" transform="translate(-2132.444 -1018.194)" fill="#ed7545"/>
      <path id="Path_202" data-name="Path 202" d="M2314.156,1087.514l-.54.134-2.829.707-1.729.433s-2.047-7.6-3.683-14.257c-.786-3.212-1.478-6.2-1.8-8.021a11.667,11.667,0,0,1-.185-1.442l2.472.14,3.123.178s.076.448.225,1.253c.595,3.209,2.339,12.1,4.943,20.874" transform="translate(-2216.16 -1028.351)" fill="#ed7545"/>
      <path id="Path_203" data-name="Path 203" d="M2217.406,1056.485a26.782,26.782,0,0,1-3.551.053c-.746-.038-1.444-.1-2.084-.183a26.565,26.565,0,0,1-3.464-.661c-.363-.1-.561-.161-.561-.161l.58-.147,3.577-.9h2.3a4.45,4.45,0,0,0-.149.565l3.122.178s.077.448.225,1.253" transform="translate(-2124.352 -1018.195)" fill="#102048"/>
      <path id="Path_204" data-name="Path 204" d="M2290.225,1189.378c-.172-.72-.983-4.131-1.089-4.709l-1.641-.615.074-.2,1.768.663v.073c.012.158.661,2.92,1.094,4.737Z" transform="translate(-2200.898 -1142.368)" fill="#163f72"/>
      <path id="Path_205" data-name="Path 205" d="M2220.84,1389.284a3.734,3.734,0,0,1-1.29-.2l.079-.2a4.085,4.085,0,0,0,2.1.1l.041.208a4.842,4.842,0,0,1-.929.091" transform="translate(-2135.682 -1339.166)" fill="#163f72"/>
      <path id="Path_206" data-name="Path 206" d="M2382.334,1383.492a5.543,5.543,0,0,1-.942-.083l.04-.209a3.576,3.576,0,0,0,2.114-.2l.122.174a2.415,2.415,0,0,1-1.333.313" transform="translate(-2291.026 -1333.523)" fill="#163f72"/>
      <rect id="Rectangle_141" data-name="Rectangle 141" width="0.212" height="1.048" transform="translate(85.666 62.646) rotate(-52.544)" fill="#fff"/>
      <rect id="Rectangle_142" data-name="Rectangle 142" width="0.212" height="1.223" transform="translate(95.089 61.704) rotate(-67.896)" fill="#fff"/>
      <path id="Path_207" data-name="Path 207" d="M2181.9,765.282a5.7,5.7,0,0,0-4.566,4.567l1.1,4.885-.5,3.257a43.184,43.184,0,0,0,10.053-.354l-1.549-8.3Z" transform="translate(-2095.157 -740.6)" fill="#ed7545"/>
      <path id="Path_208" data-name="Path 208" d="M2337.9,920.844s-1.1-.805.336-4.337l.956,3.478Z" transform="translate(-2248.897 -885.754)" fill="#6e3620"/>
      <path id="Path_209" data-name="Path 209" d="M2234.658,849.708l-.265-.5,4.08-2.16a.233.233,0,0,1,.316.1l.046.088a.233.233,0,0,1-.1.316Z" transform="translate(-2149.929 -819.057)" fill="#102048"/>
      <path id="Path_210" data-name="Path 210" d="M2260.98,867.952l-.108-.059-1.408-.76-2.36-1.276a.761.761,0,0,1,.159-.693l-.117-.047a.622.622,0,0,1-.369-.459l0-.026a1.074,1.074,0,0,1-.013-.5l.055-.072a1.886,1.886,0,0,1,.378-.414l-.3.017s-.743.2-.4-.274a2.98,2.98,0,0,1,1.075-.752.334.334,0,0,1,.38.068,24.477,24.477,0,0,0,2.819,2.33l.019.259.174,2.385Z" transform="translate(-2171.054 -834.012)" fill="#f9b384"/>
      <path id="Path_211" data-name="Path 211" d="M2263.744,883.866l-.643-.314a.349.349,0,0,0-.215-.031l-.685.119-.019-.1.685-.119a.458.458,0,0,1,.281.04l.643.314Z" transform="translate(-2176.603 -853.986)" fill="#e28b6d"/>
      <path id="Path_212" data-name="Path 212" d="M2266.6,899.734l-.771-.3a.3.3,0,0,0-.107-.02h-.439v-.106h.439a.407.407,0,0,1,.146.027l.771.3Z" transform="translate(-2179.577 -869.25)" fill="#e28b6d"/>
      <path id="Path_213" data-name="Path 213" d="M2267.4,915.36l-.7-.264a.373.373,0,0,0-.174-.022l-.287.033-.012-.106.287-.033a.483.483,0,0,1,.224.028l.7.264Z" transform="translate(-2180.487 -884.274)" fill="#e28b6d"/>
      <path id="Path_214" data-name="Path 214" d="M2334.147,919.417l-.089.217-1.408-.76.933-2.366.391.525Z" transform="translate(-2244.24 -885.754)" fill="#e28b6d"/>
      <path id="Path_215" data-name="Path 215" d="M2347.5,1014.792s2.106,2,3.823,1.947l-.5-2.354Z" transform="translate(-2258.496 -979.702)" fill="#ba5c36"/>
      <path id="Path_216" data-name="Path 216" d="M2291.071,764.887a5.572,5.572,0,0,1,.692-.012,7.635,7.635,0,0,1,7.3,8.053c-.086,1.757-.542,3.5-2.01,3.535l-3.717-1.168a9.783,9.783,0,0,0,.336-4.337l1.726.823Z" transform="translate(-2204.331 -740.205)" fill="#ed7545"/>
      <path id="Path_217" data-name="Path 217" d="M2145.021,860.5l-5.2.128-.142-.44-.522-1.606-1.512-4.645,5.2-.127Z" transform="translate(-2057.069 -825.576)" fill="#d3dfff"/>
      <g id="Group_82" data-name="Group 82" transform="translate(82.093 32.452)" opacity="0.3">
        <g id="Group_81" data-name="Group 81">
          <g id="Group_80" data-name="Group 80" clip-path="url(#clip-path-4)">
            <path id="Path_218" data-name="Path 218" d="M2176.418,958.832a4.3,4.3,0,0,1-.58,2.162l-.522-1.606Z" transform="translate(-2175.316 -958.832)" fill="#1f3c88"/>
          </g>
        </g>
      </g>
      <path id="Path_219" data-name="Path 219" d="M2136.862,910.772a4.932,4.932,0,0,1,.79-1.456c.1-.14.331-.484.549-.432.443.106,0,.885,0,.885s.425-.637.584-.319a.752.752,0,0,1-.071.673s.672-.443.425.443c0,0,.549-.071.212.531a10.428,10.428,0,0,1-.7,1.3,1.133,1.133,0,0,1-1.345.394,1.409,1.409,0,0,1-.558-1.519,2.969,2.969,0,0,1,.11-.5" transform="translate(-2056.187 -878.432)" fill="#f9b384"/>
      <path id="Path_220" data-name="Path 220" d="M2162.5,922.715a.053.053,0,0,1-.049-.075l.5-1.142a.053.053,0,1,1,.1.043l-.5,1.142a.053.053,0,0,1-.048.032" transform="translate(-2080.872 -890.515)" fill="#e28b6d"/>
      <path id="Path_221" data-name="Path 221" d="M2175.4,936.156a.05.05,0,0,1-.022-.005.053.053,0,0,1-.026-.071l.478-1.022a.054.054,0,0,1,.071-.026.053.053,0,0,1,.026.071l-.478,1.022a.053.053,0,0,1-.048.031" transform="translate(-2093.25 -903.531)" fill="#e28b6d"/>
      <path id="Path_222" data-name="Path 222" d="M2185.315,950.465a.053.053,0,0,1-.047-.078l.412-.783a.054.054,0,0,1,.072-.022.053.053,0,0,1,.022.072l-.411.783a.053.053,0,0,1-.047.028" transform="translate(-2102.771 -917.495)" fill="#e28b6d"/>
      <path id="Path_223" data-name="Path 223" d="M2177.3,850.129h-1.858l-.319-.637h1.858Z" transform="translate(-2093.038 -821.429)" fill="#102048"/>
      <path id="Path_224" data-name="Path 224" d="M2267.109,806.5a1.629,1.629,0,0,1-.919-.277.08.08,0,0,1,.1-.126,1.528,1.528,0,0,0,1.716-.023.08.08,0,1,1,.082.136,1.869,1.869,0,0,1-.977.289" transform="translate(-2180.42 -779.745)" fill="#ba5c36"/>
      <path id="Path_225" data-name="Path 225" d="M2345.6,918.558a.087.087,0,0,1-.023,0,.08.08,0,0,1-.054-.1,8.807,8.807,0,0,0,.336-4.294l-.031-.119,3.29.551a.08.08,0,1,1-.026.157l-3.053-.512a9.421,9.421,0,0,1-.362,4.261.08.08,0,0,1-.076.057" transform="translate(-2256.593 -883.389)" fill="#ba5c36"/>
      <path id="Path_226" data-name="Path 226" d="M2378.894,837.982h0a.08.08,0,0,1-.075-.084,6.209,6.209,0,0,0-1.1-3.491.08.08,0,1,1,.132-.089,6.374,6.374,0,0,1,1.129,3.59.08.08,0,0,1-.08.075" transform="translate(-2287.481 -806.831)" fill="#ba5c36"/>
      <path id="Path_227" data-name="Path 227" d="M2272.368,716.586v2.05a1.153,1.153,0,1,1-2.3,0v-2.05Z" transform="translate(-2184.168 -693.859)" fill="#f9b384"/>
      <path id="Path_228" data-name="Path 228" d="M2271.281,719.423a1.993,1.993,0,0,1-1.215,1.633v-1.8Z" transform="translate(-2184.169 -696.423)" fill="#102048"/>
      <path id="Path_229" data-name="Path 229" d="M2247.116,639.744s-.357,2.875.763,3.216a2.445,2.445,0,0,0,2.144-.65l-.211-2.372-1.657-.975Z" transform="translate(-2162.089 -619.354)" fill="#f9b384"/>
      <path id="Path_230" data-name="Path 230" d="M2230.007,621.289l-2.211.147a2.606,2.606,0,0,1-.542-1.23,1.538,1.538,0,0,0,.227,1.251l-.6.04a5.076,5.076,0,0,1-.45-4.057l.062-.355s-.378-1.145-.926-1.194c0,0-1.879,1.268-2.717-.147-.625-1.054-.1-2.439,1.4-1.417,0,0,3.608-1.693,3.6,1.778a2.2,2.2,0,0,0,.692,1.65,1.248,1.248,0,0,0,.125.108,3.478,3.478,0,0,1,1.334,3.424" transform="translate(-2138.604 -595.311)" fill="#102048"/>
      <path id="Path_231" data-name="Path 231" d="M2308.368,678.551a.546.546,0,1,1-.32-.765.59.59,0,0,1,.32.765" transform="translate(-2219.915 -656.595)" fill="#f9b384"/>
      <path id="Path_232" data-name="Path 232" d="M2318.015,686.42a.053.053,0,0,1-.053-.053.442.442,0,0,1,.4-.442h0a.053.053,0,0,1,0,.106.333.333,0,0,0-.295.336.053.053,0,0,1-.053.053" transform="translate(-2230.143 -664.428)" fill="#102048"/>
      <path id="Path_233" data-name="Path 233" d="M2251.876,682.528a.133.133,0,1,1-.133-.133.133.133,0,0,1,.133.133" transform="translate(-2166.456 -661.041)" fill="#102048"/>
      <path id="Path_234" data-name="Path 234" d="M2271.826,680.874a.133.133,0,1,1-.133-.133.133.133,0,0,1,.133.133" transform="translate(-2185.604 -659.453)" fill="#102048"/>
      <path id="Path_235" data-name="Path 235" d="M2258.821,688.654a.052.052,0,0,1-.037-.015.329.329,0,0,1-.131-.3.277.277,0,0,1,.153-.173l-.012-.262a.053.053,0,0,1,.051-.055.054.054,0,0,1,.055.051l.015.338-.038.013c-.029.01-.108.05-.122.112s.047.145.1.2a.053.053,0,0,1-.037.091" transform="translate(-2173.209 -666.278)" fill="#102048"/>
      <path id="Path_236" data-name="Path 236" d="M2262.757,710.457a.526.526,0,0,1-.076,0,.053.053,0,0,1-.044-.061.055.055,0,0,1,.06-.044.682.682,0,0,0,.508-.167.053.053,0,0,1,.069.08.789.789,0,0,1-.518.2" transform="translate(-2177.039 -687.699)" fill="#102048"/>
      <g id="Group_85" data-name="Group 85" transform="translate(86.401 21.679)" opacity="0.4">
        <g id="Group_84" data-name="Group 84">
          <g id="Group_83" data-name="Group 83" clip-path="url(#clip-path-5)">
            <path id="Path_237" data-name="Path 237" d="M2283.333,690.844a.348.348,0,1,1-.348-.348.348.348,0,0,1,.348.348" transform="translate(-2282.636 -690.496)" fill="#eb5d60"/>
          </g>
        </g>
      </g>
      <rect id="Rectangle_145" data-name="Rectangle 145" width="113.343" height="0.212" transform="translate(-1.313 64.509)" fill="#102048"/>
    </g>
  </g>
</svg>
